<?xml version="1.0" standalone="no"?>
<!DOCTYPE svg PUBLIC "-//W3C//DTD SVG 20010904//EN"
 "http://www.w3.org/TR/2001/REC-SVG-20010904/DTD/svg10.dtd">
<svg version="1.0" xmlns="http://www.w3.org/2000/svg"
 width="240.000000pt" height="240.000000pt" viewBox="0 0 240.000000 240.000000"
 preserveAspectRatio="xMidYMid meet">

<g transform="translate(0.000000,240.000000) scale(0.100000,-0.100000)"
fill="#1877F2" stroke="none">
<path d="M1008 2384 c-48 -7 -129 -27 -179 -44 -707 -237 -1033 -1033 -692
-1692 268 -519 885 -772 1435 -588 431 145 747 516 813 957 121 805 -572 1493
-1377 1367z m492 -634 l0 -150 -84 0 c-111 0 -116 -5 -116 -116 l0 -84 101 0
101 0 -5 -42 c-4 -24 -9 -69 -13 -100 l-6 -58 -89 0 -89 0 0 -350 0 -350 -150
0 -150 0 0 350 0 350 -100 0 -100 0 0 100 0 100 99 0 99 0 4 163 c4 182 13
215 82 275 32 28 56 38 131 55 11 3 80 5 153 6 l132 1 0 -150z"/>
</g>
</svg>
