<?xml version="1.0" standalone="no"?>
<!DOCTYPE svg PUBLIC "-//W3C//DTD SVG 20010904//EN"
 "http://www.w3.org/TR/2001/REC-SVG-20010904/DTD/svg10.dtd">
<svg version="1.0" xmlns="http://www.w3.org/2000/svg"
 width="240.000000pt" height="240.000000pt" viewBox="0 0 240.000000 240.000000"
 preserveAspectRatio="xMidYMid meet">

<g transform="translate(0.000000,240.000000) scale(0.100000,-0.100000)"
fill="#E4405F" stroke="none">
<path d="M720 2389 c-243 -14 -392 -70 -515 -194 -129 -128 -180 -269 -195
-540 -12 -206 -12 -704 0 -910 15 -271 66 -412 195 -540 128 -129 269 -180
540 -195 206 -12 704 -12 910 0 271 15 412 66 540 195 129 128 180 269 195
540 12 206 12 704 0 910 -15 271 -66 412 -195 540 -128 129 -269 180 -540 195
-188 11 -741 10 -935 -1z m1090 -224 c201 -40 314 -154 357 -362 25 -117 25
-1089 0 -1206 -44 -209 -155 -320 -362 -364 -69 -14 -153 -17 -605 -17 -452 0
-536 3 -605 17 -207 44 -318 155 -362 364 -25 116 -25 1090 0 1206 40 193 140
305 313 353 94 25 287 33 754 28 338 -3 452 -7 510 -19z"/>
<path d="M1790 1973 c-23 -9 -60 -45 -76 -75 -31 -60 -6 -138 58 -179 25 -15
45 -19 81 -16 134 12 174 196 56 259 -32 17 -87 22 -119 11z"/>
<path d="M1050 1794 c-216 -57 -390 -232 -445 -449 -19 -76 -19 -214 0 -290
56 -220 230 -394 450 -450 76 -19 214 -19 290 0 220 56 394 230 450 450 19 76
19 214 0 290 -56 220 -230 394 -450 450 -74 19 -222 18 -295 -1z m313 -226
c79 -37 160 -116 200 -197 30 -61 32 -72 32 -171 0 -93 -3 -111 -27 -163 -38
-80 -117 -160 -197 -200 -61 -30 -72 -32 -171 -32 -93 0 -111 3 -163 27 -80
38 -160 117 -200 197 -30 61 -32 72 -32 171 0 93 3 112 27 162 47 101 147 190
251 224 70 23 210 14 280 -18z"/>
</g>
</svg>
