<?xml version="1.0" standalone="no"?>
<!DOCTYPE svg PUBLIC "-//W3C//DTD SVG 20010904//EN"
 "http://www.w3.org/TR/2001/REC-SVG-20010904/DTD/svg10.dtd">
<svg version="1.0" xmlns="http://www.w3.org/2000/svg"
 width="240.000000pt" height="240.000000pt" viewBox="0 0 240.000000 240.000000"
 preserveAspectRatio="xMidYMid meet">

<g transform="translate(0.000000,240.000000) scale(0.100000,-0.100000)"
fill="#25D366" stroke="none">
<path d="M1014 2385 c-468 -83 -832 -414 -959 -875 -21 -76 -28 -126 -32 -248
-8 -221 22 -377 109 -563 l40 -88 -82 -301 c-45 -166 -80 -303 -78 -305 1 -2
138 33 303 76 165 43 308 79 318 79 10 0 43 -13 75 -29 129 -65 335 -111 497
-111 490 0 947 319 1115 778 68 185 89 430 55 624 -43 248 -170 478 -364 660
-151 141 -314 229 -529 284 -123 32 -343 41 -468 19z m439 -219 c337 -86 617
-363 708 -701 30 -114 37 -322 15 -435 -65 -320 -253 -565 -541 -705 -291
-142 -596 -138 -886 11 l-87 45 -170 -46 c-94 -25 -177 -45 -185 -45 -11 0 -3
41 35 178 l50 178 -37 63 c-45 77 -87 177 -111 267 -15 54 -19 105 -19 234 0
197 18 278 95 435 149 303 423 497 775 549 75 11 262 -4 358 -28z"/>
<path d="M705 1719 c-84 -78 -122 -205 -95 -320 30 -126 133 -283 289 -440
152 -153 305 -245 500 -303 127 -37 256 -10 341 73 39 37 50 56 59 99 21 102
26 95 -121 167 -73 35 -143 67 -154 70 -18 5 -34 -9 -88 -75 -37 -44 -74 -80
-83 -80 -33 0 -180 81 -244 134 -85 70 -199 214 -199 251 0 8 20 40 44 69 24
30 47 64 51 75 8 27 -101 295 -129 313 -6 4 -37 8 -69 8 -54 0 -60 -3 -102
-41z"/>
</g>
</svg>
